<svg xmlns="http://www.w3.org/2000/svg" viewBox="0 0 439.37 56.4"><defs><style>.cls-1{fill:#f1f2f2;}.cls-2{fill:#231f20;}</style></defs><g id="Layer_2" data-name="Layer 2"><g id="레이어_2" data-name="레이어 2"><rect class="cls-1" width="439.37" height="56.4"/><path class="cls-2" d="M98,15.07c-.11-.36-.75-.53-1.2-.65-.21,0-.3-.09-.3-.17s.14-.18.48-.24a8.72,8.72,0,0,1,1.82.22c.28.1.34.19.34.32s-.06.28-.06.48l0,1.44,5.28-.14V14.22c0-.32-.45-.56-1.12-.82-.16-.06-.25-.13-.25-.19s.17-.15.54-.16a8.12,8.12,0,0,1,1.68.35c.22.08.29.18.29.31s-.07.27-.08.44l0,4.63A3.81,3.81,0,0,1,105,20.7c-.11.11-.21.19-.29.19s-.25-.17-.32-.59l-2.58.08c.5.1.61.19.61.34s0,.2,0,.35l0,2.67c.7,0,1.44,0,3.21-.13,1-.14,1-.36,1.59-.36s1.87.17,1.87.68c0,.2-.24.36-.65.36h-.16c-1.37-.13-3-.2-4.73-.2-1.89,0-3.85.08-5.58.2-.64.16-.79.33-1.09.33s-2.16-.75-2.16-1c0-.07.08-.12.25-.12a.68.68,0,0,1,.2,0,25.77,25.77,0,0,0,4.11.27l2.19,0V21.29c0-.27-.27-.43-.78-.69a.69.69,0,0,1-.29-.17L99,20.48c-.21.64-.37.94-.58.94s-.26-.32-.26-.83Zm1.06,1.87,0,3.07,5.3-.17V16.79Z"/><path class="cls-2" d="M124.29,19.24c-.88-.08-1.93-.09-3-.09-3.26,0-6.5.17-7.89.32-.46.09-.53.28-.8.28a5.13,5.13,0,0,1-2.1-1c0-.07.07-.1.2-.1a1.57,1.57,0,0,1,.32.05,13.64,13.64,0,0,0,2.7.18c2.19,0,5.19-.16,8-.28.83,0,.64-.33,1.55-.33s1.5.09,1.5.53c0,.21-.2.41-.54.41Zm-5-7.09a11.27,11.27,0,0,1,1.54-.21c.62,0,.81.1.81.21s-.33.32-.53.43a21.54,21.54,0,0,1-2.89,2.2,10,10,0,0,0,3.73.41c.43,0,1.81.31,1.81.82,0,.16-.13.27-.44.27s-4.43-.78-5.74-1.18a30.6,30.6,0,0,1-6.44,2.21c-.09,0-.14,0-.14,0s.14-.15.48-.24c2.59-.87,6.35-2.47,8.19-4.48-1.15,0-3.28.16-4.8.24-.35.08-.4.24-.64.24s-1.66-.55-1.66-.77c0-.05,0-.07.17-.07a1.57,1.57,0,0,1,.29,0,13.91,13.91,0,0,0,2,.11c1.17,0,2.61-.06,4.09-.16Zm-1.7,8.57a.62.62,0,0,0-.19-.42.28.28,0,0,1-.16-.21c0-.06.06-.11.21-.11.32,0,1,.32,1,.54s-.18.28-.22.47c1.76.32,2.59,1.44,2.59,2.54,0,1.33-1.14,2.61-3.14,2.61s-3.07-1.26-3.07-2.61c0-1.13.88-2.3,2.72-2.56A.24.24,0,0,0,117.6,20.72Zm-2.06,2.75a2.26,2.26,0,1,0,2.24-2A2,2,0,0,0,115.54,23.47Z"/><path class="cls-2" d="M126.61,21.36a15.15,15.15,0,0,0,4.67-6.21c0-.1.08-.26.08-.28s-.17-.4-1-.94c-.25-.16-.37-.27-.37-.35s.15-.15.36-.15a2.13,2.13,0,0,1,.52.07c.63.22,1.88.7,1.88,1.1a.64.64,0,0,1-.12.32,17.49,17.49,0,0,1-1.23,2.27,5.65,5.65,0,0,0,1.57,1.59c.64.48.62.1,1.44,1.42a1.34,1.34,0,0,1,.26.66.4.4,0,0,1-.39.42.47.47,0,0,1-.37-.18c-.57-.72-1.58-2-2.78-3.51a12.49,12.49,0,0,1-4.69,4.12.06.06,0,0,1-.06-.05C126.34,21.6,126.43,21.48,126.61,21.36ZM137.67,13c0-.4-.8-.8-1.47-1.11-.2-.06-.52-.17-.52-.29s.12-.14.45-.2a7.64,7.64,0,0,1,2.1.46c.45.16.56.29.56.45s-.11.37-.11.65l0,10.7c0,2.21-.41,2.86-.64,2.86s-.33-.41-.35-1.17V17.61l-2.22.05c-.39.05-.39.18-.58.18s-1.28-.39-1.28-.65c0,0,.06-.08.21-.08a1.15,1.15,0,0,1,.24,0c.38,0,.69,0,1,0,.7,0,1.31,0,2.67,0Z"/><path class="cls-2" d="M143,27c.8-.72,1.09-1.09,1.09-1.6,0-.24-.09-.4-.32-.4a.74.74,0,0,1-.59-.77.81.81,0,0,1,.78-.8.91.91,0,0,1,.92,1,3.39,3.39,0,0,1-1.7,2.72Z"/><path class="cls-2" d="M160.44,14.17c.48,0,.62.08.62.21s-.27.41-.43.72c-1.49,5.74-6.63,9-7,9,0,0-.06,0-.06-.05s.09-.18.29-.34a18.38,18.38,0,0,0,4.91-6.18c-1.25.32-2.58.64-3.59.87-.24.08-.28.24-.51.24a4.71,4.71,0,0,1-1.73-.75c-.16-.08-.27-.2-.27-.28s.06-.09.19-.09l.27,0a8.23,8.23,0,0,0,1.27.08,24.75,24.75,0,0,0,4.53-.51,14.39,14.39,0,0,0,.65-2.39c-.76,0-2.51.11-3.36.18-.41.08-.48.24-.72.24s-1.63-.59-1.63-.84c0,0,.07-.07.19-.07l.27,0a10.76,10.76,0,0,0,2,.14c.91,0,2.6-.06,3-.11s.14-.16,1.05-.16ZM163,12.79c0-.27-.88-.65-1.56-1-.17-.06-.28-.14-.28-.21s.19-.17.67-.19a13.24,13.24,0,0,1,1.84.43c.33.13.41.24.41.4s0,.28,0,.52V18.6h.8c.75-.11.49-.41,1.52-.41.3,0,1,0,1,.49,0,.23-.19.42-.54.42H164l0,4.64a5.88,5.88,0,0,1-.4,2.37c-.12.19-.25.29-.36.29s-.24-.21-.24-.74Z"/><path class="cls-2" d="M179.72,23.6c.67-.05.59-.35,1.44-.35.38,0,1.66,0,1.66.55,0,.21-.21.39-.54.39h-.07c-1.31-.1-3-.11-4.48-.11-2,0-4.11.08-6.18.21-.56.12-.62.35-.91.35s-2.13-.74-2.13-1c0-.05.05-.08.18-.08a1.7,1.7,0,0,1,.35,0,13.82,13.82,0,0,0,3.15.23c1.92,0,4.37-.1,6.89-.15Zm-8.09-9c0-.3-.64-.58-1.28-.83-.16,0-.3-.11-.3-.2s.14-.17.54-.19a8.11,8.11,0,0,1,2.15.4l4.42,0c1.79-.13.76-.52,2.6-.52h.15c.48,0,.75.24.75.47s-.22.4-.74.4c-2.52.08-5.42.09-6.89.13-.18.08-.36,0-.36.31v3.57c0,.61,0,.61,2.23.61,1,0,2.06,0,3-.05s.72-.46,2.15-.46c.78,0,.94.32.94.46s-.22.41-.62.41c-.76,0-3.43.06-5.38.06l-2.07,0a1.22,1.22,0,0,1-1.26-1.18Z"/><path class="cls-2" d="M186.35,14.78c-.16-.31-.46-.44-1.12-.64-.13,0-.27-.1-.27-.18s.13-.16.53-.22a7.86,7.86,0,0,1,1.82.24c1.32,0,2.34,0,3.61-.13.4,0,.14-.11.87-.11.52,0,.89,0,.89.19s-.36.4-.39.64l-.72,3.7c.47.11.75.27.75.4s-.2.19-.69.19c-.8,0-3.29.06-4.24.11,0,.37-.16.83-.43.87s-.3-.34-.37-1.38Zm1.28-.4c-.16.08-.25,0-.27.32l.08,3.84A12.9,12.9,0,0,0,191,18.3c.05-.72.14-2.64.17-4Zm5.45,6.34a.65.65,0,0,0-.21-.42.27.27,0,0,1-.15-.21c0-.06.07-.11.2-.11.32,0,1.05.32,1.05.54s-.17.28-.24.47c1.78.32,2.61,1.45,2.61,2.56,0,1.3-1.12,2.59-3.15,2.59s-3.06-1.29-3.06-2.58.87-2.33,2.71-2.59A.24.24,0,0,0,193.08,20.72ZM191,23.47a2.26,2.26,0,1,0,2.24-2A2,2,0,0,0,191,23.47ZM195.72,13c0-.36-.63-.76-1.38-1.09-.16,0-.46-.15-.46-.24s.41-.19.51-.19a8.81,8.81,0,0,1,1.89.36c.45.16.54.31.54.47s-.06.29-.06.48l-.07,4.9c0,2.16-.14,2.45-.38,2.89-.13.24-.24.34-.34.34s-.25-.37-.25-.91v-2c-.48.05-1,.08-1.54.12-.29.06-.34.19-.53.19a2.92,2.92,0,0,1-1.36-.63s.1-.08.27-.08l.79,0a23.09,23.09,0,0,0,2.37-.11v-2.4c-.66,0-1.16.08-1.44.09s-.37.2-.6.2-1.39-.39-1.39-.66c0-.05.07-.06.18-.06a1.47,1.47,0,0,1,.33,0h1c.74,0,1.12,0,1.94-.08Z"/><path class="cls-2" d="M207.27,14.33c.93-.18.49-.46,1.79-.48.58,0,.83.24.83.45s-.22.38-.65.38c-1.37,0-2.65.08-3.41.13a.87.87,0,0,1,.24.48c0,.18-.15.27-.2.4,1.78.26,2.61,1.3,2.61,2.35s-1,2.34-3,2.34-3.06-1.18-3.06-2.38.83-2.1,2.66-2.34a.43.43,0,0,0,.25-.35.65.65,0,0,0-.24-.45,17.33,17.33,0,0,0-2,.16c-.33.05-.41.17-.61.17a3.35,3.35,0,0,1-1.5-.81c0-.05.06-.08.21-.08l.32,0a15.05,15.05,0,0,0,2.35.16C204.8,14.49,205.25,14.46,207.27,14.33Zm-2.52-1.07a2.53,2.53,0,0,1-1.32-.9s0-.08.12-.08a2.9,2.9,0,0,1,.39.06,15.91,15.91,0,0,0,2.89.12c.44,0,.68.19.68.36s-.27.37-.88.4ZM203.43,18a1.82,1.82,0,0,0,2,1.73A1.85,1.85,0,0,0,207.55,18a1.86,1.86,0,0,0-2.08-1.76A1.83,1.83,0,0,0,203.43,18Zm2,7.87c0-.53-.12-2.64-.24-3.5,0-.26,0-.34-.92-.64-.18-.05-.36-.12-.36-.2s.15-.14.53-.2a13.63,13.63,0,0,1,1.79.22c.76,0,3.49-.08,4.29-.16.37,0,.18-.18.72-.18s1.05.07,1.05.24-.23.31-.29.56c-.32,1.3-.5,2.21-.64,2.79.48.08.68.24.68.38s-.17.23-.46.23c-1.07,0-4.3.11-5.35.11-.09.62-.32,1-.51,1S205.44,26.25,205.39,25.82ZM209.8,25a5.76,5.76,0,0,0,1-.21c.05-.74.13-2.24.13-3-.88.06-3.38.11-4.6.16-.08.09-.19.08-.19.24l.08,2.88ZM211,12.74c0-.16-.4-.48-1.38-.86-.24-.08-.37-.18-.37-.26s.19-.17.58-.19a8.07,8.07,0,0,1,1.68.39c.46.17.57.28.57.44s-.06.24-.06.44L212,17c.23,0,.39,0,.63,0,.83-.1.43-.45,1.6-.45.32,0,.94,0,.94.43a.44.44,0,0,1-.44.4l-2.74.05c0,2.42-.61,2.69-.75,2.69s-.24-.18-.24-.64Z"/><path class="cls-2" d="M217,27c.8-.72,1.09-1.09,1.09-1.6,0-.24-.1-.4-.32-.4a.75.75,0,0,1-.6-.77.82.82,0,0,1,.79-.8c.48,0,.91.3.91,1a3.39,3.39,0,0,1-1.7,2.72Z"/><path class="cls-2" d="M237.73,17.42c1.12-.05.9-.43,1.88-.43.14,0,1.37,0,1.37.56,0,.19-.22.35-.67.35l-1.15,0c-2.87,0-8.81.15-9.49.26-.45.08-.56.22-.82.22s-2.14-.67-2.14-.94c0-.07.08-.08.2-.08h.23a30.88,30.88,0,0,0,4.16.23c1.41,0,3,0,4.82-.11a20.11,20.11,0,0,0,1-4.45c-2,0-4.83.19-6,.24-.64.08-.65.3-.92.3s-1.67-.58-1.67-.83c0-.05.05-.08.18-.08H229a16.3,16.3,0,0,0,2.41.15c1.51,0,3.3-.1,5.14-.18.38,0,.46-.11,1-.11s1,0,1,.24-.22.35-.37.58a32,32,0,0,1-1.58,4.09Zm-7.1,4.4c0-.32-.32-.46-1-.69-.2-.05-.37-.14-.37-.22s.16-.18.67-.18a7.93,7.93,0,0,1,1.81.21l4.42-.08c.4,0,.35-.16.76-.16.16,0,.88,0,.88.26s-.15.27-.22.44c-.32,1.32-.62,2.53-.75,3.08.58.13.83.3.83.43s-.17.18-.49.18l-5.51.08c-.08.62-.29,1-.47,1s-.32-.28-.38-.88Zm1.23-.48c-.05.06-.23.1-.23.26l.07,3.18,3.62-.08a3.63,3.63,0,0,0,1-.19l.22-3.27Z"/><path class="cls-2" d="M245.25,19.18c-.16.57-.42.91-.61.91s-.29-.22-.3-.75c0-.11,0-3.36-.05-4.56,0-.21-.06-.44-1.07-.72-.28,0-.42-.11-.42-.19s.16-.18.46-.23c1.83.07,2.07.23,2.07.48,0,.08,0,.18,0,.27v1.24l3.82-.08V14c0-.23-.3-.42-.94-.63-.22-.06-.35-.14-.35-.21s.16-.14.51-.21c1.6.16,1.82.29,1.82.53,0,.07,0,.36,0,.42,0,2.13,0,3.95-.11,4.74s-.4,1.07-.59,1.07-.26-.21-.27-.64Zm7.67,2.22c-1,.05-3.54.15-5.56.21-.61,0-.69.27-1,.27a3.23,3.23,0,0,1-1.63-.78c0-.05.06-.08.22-.08a1,1,0,0,1,.23,0,18.17,18.17,0,0,0,2.45.12c1.55,0,3.36-.08,4.67-.14.4,0,.37-.18.83-.18a1,1,0,0,1,.24,0c.61,0,.77.13.77.24s-.16.3-.16.51a17,17,0,0,1-.25,4.15c-.12.45-.34.72-.52.72s-.25-.18-.25-.58Zm-7.64-5.34v2.67l3.86-.1V16Zm7.7-3.32c0-.16-.4-.48-1.38-.86-.24-.08-.36-.18-.36-.26s.19-.17.57-.19a8.07,8.07,0,0,1,1.68.39c.47.17.58.28.58.44s-.07.24-.07.44V17c.22,0,.38,0,.62,0,.84-.1.44-.45,1.6-.45.32,0,1,0,1,.43a.45.45,0,0,1-.45.4l-2.74.05c0,2.42-.6,2.69-.75,2.69s-.24-.18-.24-.64Z"/><path class="cls-2" d="M259,27c.8-.72,1.09-1.09,1.09-1.6,0-.24-.09-.4-.32-.4a.74.74,0,0,1-.59-.77.81.81,0,0,1,.78-.8.91.91,0,0,1,.92,1,3.39,3.39,0,0,1-1.7,2.72Z"/><path class="cls-2" d="M277.57,13.75c-.05-.35-.49-.65-1.13-.93-.26-.09-.42-.19-.42-.27s.13-.13.42-.16a7.77,7.77,0,0,1,1.64.35c.39.1.47.2.47.36s-.06.35-.06.65V21a11.67,11.67,0,0,1-.32,3.6c-.13.34-.29.53-.41.53s-.19-.16-.19-.53V18h-.64c-.53.08-.59.29-.8.29a1.6,1.6,0,0,1-.65-.26,3,3,0,0,1-6-.16,2.55,2.55,0,0,1,2.38-2.51.47.47,0,0,0,.5-.32.35.35,0,0,0-.12-.24c-.12-.13-.19-.21-.19-.28s.07-.09.19-.09c.4,0,.93.29.93.5s-.19.28-.25.46a2.79,2.79,0,0,1,2.49,2.13,7.58,7.58,0,0,0,.82,0c.5,0,.94,0,1.31-.05ZM270.47,18a1.9,1.9,0,0,0,2,2,2,2,0,1,0,0-3.95A1.9,1.9,0,0,0,270.47,18Zm9.78-5.06c0-.28-.56-.64-1.37-1.05-.25-.08-.39-.19-.39-.27s.19-.16.62-.16a16.54,16.54,0,0,1,1.62.4c.44.14.54.25.54.41s0,.26-.06.47V22.83a10.76,10.76,0,0,1-.28,3c-.14.35-.3.54-.43.54s-.25-.22-.25-.73Z"/><path class="cls-2" d="M289,16.94c-.41.08-.48.24-.69.24a3.88,3.88,0,0,1-1.6-.8c0-.07.08-.1.23-.1a.72.72,0,0,1,.19,0,17.81,17.81,0,0,0,2.51.14c.95,0,1.91,0,2.71-.08a20.6,20.6,0,0,0,.78-2.43c0-.21-.16-.37-.46-.58-.16-.06-.26-.14-.26-.21s.15-.12.48-.12c0,0,1.51.35,1.51.7,0,.11-.11.24-.23.47-.48.7-1,1.52-1.34,2.14.3,0,.57,0,.86-.1.64-.09.31-.4,1.47-.4.34,0,1.17,0,1.17.5,0,.19-.22.37-.6.37-1.11,0-2.52,0-3.48.05a11.53,11.53,0,0,1-.14,2,31.93,31.93,0,0,0,3.63-.12c.72-.1.63-.31,1.38-.31.4,0,1.69,0,1.69.52,0,.2-.24.4-.6.4l-.15,0c-.8,0-2.3-.06-4-.06a63,63,0,0,0-6.4.24c-.53.11-.64.27-.93.27s-2.07-.64-2.07-.93c0-.07.07-.1.21-.1a.93.93,0,0,1,.23,0,18.5,18.5,0,0,0,3.39.24c.9,0,1.86,0,2.8-.1-.05-.62-.08-1.31-.08-2.06C290.12,16.86,289.43,16.89,289,16.94Zm4.47-4.77c.9-.1.56-.43,1.78-.43.19,0,1.32,0,1.32.52,0,.05,0,.37-.7.37-2.21,0-5.7.11-6.85.16-.43.08-.5.24-.72.24s-1.75-.59-1.75-.88c0-.05.05-.08.15-.08a1.47,1.47,0,0,1,.38.07,18.27,18.27,0,0,0,2.61.17C290.72,12.31,293,12.2,293.43,12.17Zm1.22,9.36-5.3.23c-.6,0-.69.25-1,.25a3.38,3.38,0,0,1-1.65-.77s.07-.08.23-.08a1,1,0,0,1,.22,0,15.61,15.61,0,0,0,2.37.13c1.49,0,3.2-.08,4.51-.15.41,0,.36-.17.87-.17h.21c.61,0,.77.13.77.25s-.16.31-.16.52a16.63,16.63,0,0,1-.26,4c-.13.45-.35.72-.53.72s-.25-.18-.25-.58Zm-4.42-6.27c0,.72-.44.88-.53.88s-.27-.11-.34-.34a18.83,18.83,0,0,0-.8-2,.85.85,0,0,1-.19-.42.05.05,0,0,1,.06-.06A3.71,3.71,0,0,1,290.23,15.26Z"/><path class="cls-2" d="M301.06,21.37a13.89,13.89,0,0,0,4.54-6.27c0-.24-.68-.74-1.15-1-.1-.07-.24-.16-.24-.24s.11-.15.45-.15a5.43,5.43,0,0,1,2.08.85.29.29,0,0,1,.18.27,12.92,12.92,0,0,1-1,2.13c.58.61,1.11,1.19,1.6,1.62s1,.22,1.64,1.6a1.66,1.66,0,0,1,.16.62c0,.26-.13.4-.31.4s-.49-.17-.75-.57-1.82-2.31-2.63-3.25c-1.58,2.29-4.35,4.35-4.83,4.35,0,0-.05,0-.05,0S300.85,21.55,301.06,21.37ZM311.69,13c0-.3-.52-.68-1.43-1.08-.22-.08-.35-.18-.35-.26s.16-.18.53-.21a10.65,10.65,0,0,1,1.95.51c.24.1.29.21.29.36s-.05.25-.05.43l0,9.43c0,2.94-.09,3.34-.38,3.95-.11.19-.22.29-.32.29s-.22-.19-.22-.69Z"/><path class="cls-2" d="M330.25,19.24c-.88-.08-1.94-.09-3-.09-3.27,0-6.5.17-7.9.32-.46.09-.52.28-.8.28a5.08,5.08,0,0,1-2.09-1c0-.07.06-.1.19-.1a1.57,1.57,0,0,1,.32.05,13.64,13.64,0,0,0,2.7.18c2.2,0,5.19-.16,8-.28.83,0,.64-.33,1.55-.33s1.51.09,1.51.53c0,.21-.21.41-.55.41Zm-10.65-6c-.06-.36-.51-.51-1.2-.73-.14,0-.21-.08-.21-.13s.15-.16.42-.19a6.18,6.18,0,0,1,2,.33c1.25,0,2.72,0,4.29-.08,1.27-.09.67-.4,1.95-.4.34,0,1.16,0,1.16.4,0,.2-.26.37-.74.37-1.68.08-4.9.11-6.5.13-.11.1-.19,0-.19.3,0,.66,0,1.78,0,2.5.05.56.11.56,1.8.56.84,0,1.79,0,3.08-.13.89-.12.4-.44,1.93-.44.56,0,.78.2.78.41s-.24.42-.62.43c-.57,0-2.49.05-3.38.1l-1.06.05h-1.95c-1.22,0-1.57-.4-1.6-1Zm4,7.5a.63.63,0,0,0-.2-.42.31.31,0,0,1-.16-.21c0-.06.07-.11.21-.11.32,0,1,.32,1,.54s-.17.28-.22.47c1.76.32,2.59,1.44,2.59,2.54,0,1.33-1.14,2.61-3.14,2.61s-3.07-1.26-3.07-2.61c0-1.13.88-2.3,2.72-2.56A.24.24,0,0,0,323.56,20.72Zm-2.07,2.75a2.26,2.26,0,1,0,2.24-2A2,2,0,0,0,321.49,23.47Z"/><path class="cls-2" d="M334.88,24.32a.88.88,0,1,1-1.76,0,.88.88,0,1,1,1.76,0Z"/><path class="cls-2" d="M339.54,24.32a.88.88,0,1,1-1.76,0,.88.88,0,1,1,1.76,0Z"/><path class="cls-2" d="M344.19,24.32a.88.88,0,1,1-1.76,0,.88.88,0,1,1,1.76,0Z"/><path class="cls-2" d="M121.84,33.31c-.58.08-.66.27-.93.27s-1.62-.56-1.62-.8c0-.05.07-.08.2-.08a1.58,1.58,0,0,1,.38,0c.67.06,1.43.09,2.21.09s1.62,0,2.43-.05c.47,0,.37-.17.88-.17.36,0,1,.08,1,.27s-.26.29-.39.48a15.86,15.86,0,0,1-6.82,6.55,1.52,1.52,0,0,1-.52.2s0,0,0,0,.16-.21.46-.41a17.82,17.82,0,0,0,5.77-6.47Zm7.08,6.91c-1,.05-4.2.11-5.38.19-.55.11-.63.29-.9.29s-1.78-.53-1.78-.82c0-.06.07-.09.2-.09l.25,0a18.64,18.64,0,0,0,2.53.11c1.49,0,3.15-.06,4.42-.11.4,0,.37-.18.75-.18,1.11,0,1.11.23,1.11.28s-.15.3-.18.49a20.19,20.19,0,0,1-.26,4.48c-.14.45-.33.72-.51.72s-.22-.17-.25-.59Zm.06-8.28c0-.16-.4-.48-1.38-.86-.24-.08-.37-.18-.37-.26s.2-.17.58-.19a8.07,8.07,0,0,1,1.68.39c.47.17.58.28.58.44s-.07.25-.07.44v4.32c.22,0,.38,0,.62,0,.83-.1.43-.45,1.6-.45.32,0,.95,0,.95.43a.45.45,0,0,1-.45.4l-2.74,0c0,2.42-.61,2.69-.75,2.69s-.24-.18-.24-.64Z"/><path class="cls-2" d="M141.2,36.86c0-.24-.14-.39-.8-.64-.24-.07-.38-.16-.38-.26s.16-.16.51-.19c1.47.1,1.71.24,1.71.46s-.05.21-.05.34v1.62c.56,0,2.65-.13,3.42-.19.6-.07.4-.34,1.17-.34a10.72,10.72,0,0,1,1.47.16c.4.08.6.27.6.45s-.21.35-.6.35l-3.2,0c-3.28,0-7,.26-7.76.37-.37.13-.43.32-.69.32a5,5,0,0,1-2.13-1.06s0-.08.21-.08a1.06,1.06,0,0,1,.32,0,20,20,0,0,0,2.59.12c1.12,0,2.41,0,3.62-.06Zm2.07-5.51a11.1,11.1,0,0,1,1.53-.21c.63,0,.82.1.82.21s-.34.32-.53.43a21.56,21.56,0,0,1-2.9,2.2,10,10,0,0,0,3.73.41c.44,0,1.81.31,1.81.82,0,.16-.13.27-.43.27s-4.43-.78-5.75-1.18a30.35,30.35,0,0,1-6.43,2.21c-.1,0-.15,0-.15,0s.15-.15.49-.24c2.59-.87,6.35-2.47,8.19-4.48-1.15,0-3.28.16-4.8.24-.35.08-.4.24-.64.24s-1.67-.55-1.67-.77c0-.05.05-.07.18-.07a1.57,1.57,0,0,1,.29,0,13.82,13.82,0,0,0,2,.11c1.17,0,2.61-.06,4.08-.16Zm-1.7,8.57a.62.62,0,0,0-.19-.42.28.28,0,0,1-.16-.21c0-.06.06-.11.21-.11.32,0,1,.32,1,.54s-.18.28-.23.47c1.76.32,2.59,1.44,2.59,2.54,0,1.33-1.13,2.61-3.13,2.61s-3.08-1.26-3.08-2.61c0-1.13.88-2.3,2.73-2.56A.24.24,0,0,0,141.57,39.92Zm-2.07,2.75a2.26,2.26,0,1,0,2.25-2A2,2,0,0,0,139.5,42.67Z"/><path class="cls-2" d="M157.66,34c-.16-.31-.46-.44-1.12-.64-.12,0-.27-.1-.27-.18s.13-.16.53-.22a7.86,7.86,0,0,1,1.82.24c1.32,0,2.34,0,3.61-.13.4,0,.14-.11.88-.11.51,0,.88,0,.88.19s-.36.4-.39.64l-.72,3.7c.47.11.75.27.75.4s-.2.19-.68.19c-.8,0-3.3.06-4.25.11,0,.37-.16.83-.43.87s-.3-.34-.37-1.38Zm1.28-.4c-.16.08-.25,0-.27.32l.08,3.84a12.86,12.86,0,0,0,3.59-.24c0-.72.14-2.64.17-4Zm5.45,6.34a.65.65,0,0,0-.21-.42.27.27,0,0,1-.15-.21c0-.06.07-.11.2-.11.32,0,1.05.32,1.05.54s-.17.28-.24.47c1.78.32,2.61,1.45,2.61,2.56,0,1.3-1.12,2.59-3.15,2.59s-3.06-1.29-3.06-2.58.87-2.33,2.71-2.59A.24.24,0,0,0,164.39,39.92Zm-2.08,2.75a2.26,2.26,0,1,0,2.24-2A2,2,0,0,0,162.31,42.67ZM167,32.22c0-.36-.63-.76-1.38-1.09-.16-.05-.46-.15-.46-.24s.41-.19.51-.19a8.81,8.81,0,0,1,1.89.36c.45.16.54.31.54.47s-.06.29-.06.48l-.07,4.9c0,2.16-.14,2.45-.38,2.89-.13.24-.24.34-.34.34s-.25-.37-.25-.91v-2c-.48,0-1,.08-1.54.12-.29.06-.34.19-.53.19A3,3,0,0,1,163.6,37c0-.05.1-.08.27-.08h.79a23.09,23.09,0,0,0,2.37-.11v-2.4c-.66,0-1.16.08-1.44.09s-.37.2-.6.2-1.39-.39-1.39-.66c0,0,.07-.06.18-.06a1.47,1.47,0,0,1,.33,0h1c.74,0,1.12,0,1.94-.08Z"/><path class="cls-2" d="M178.58,33.53c.93-.18.49-.46,1.79-.48.58,0,.83.24.83.45s-.22.38-.65.38c-1.36,0-2.64.08-3.41.13a.87.87,0,0,1,.24.48c0,.18-.15.27-.2.4,1.78.26,2.61,1.3,2.61,2.35s-1,2.34-3,2.34-3.06-1.18-3.06-2.38.83-2.1,2.66-2.34a.43.43,0,0,0,.25-.35.65.65,0,0,0-.24-.45,17.33,17.33,0,0,0-2,.16c-.33.05-.41.17-.61.17a3.35,3.35,0,0,1-1.5-.81s.06-.08.21-.08l.32,0a15.05,15.05,0,0,0,2.35.16C176.11,33.69,176.56,33.66,178.58,33.53Zm-2.52-1.07a2.53,2.53,0,0,1-1.32-.9s0-.08.12-.08a2.9,2.9,0,0,1,.39.06,16,16,0,0,0,2.9.12c.43,0,.67.19.67.36s-.27.37-.88.4Zm-1.32,4.69a1.83,1.83,0,0,0,2,1.73,1.77,1.77,0,1,0,0-3.49A1.83,1.83,0,0,0,174.74,37.15Zm2,7.87c-.05-.53-.13-2.64-.25-3.5,0-.26,0-.34-.92-.64-.18-.05-.36-.12-.36-.2s.15-.14.53-.2a13.63,13.63,0,0,1,1.79.22c.76,0,3.49-.08,4.29-.16.37,0,.18-.18.72-.18s1.05.07,1.05.24-.23.31-.29.56c-.32,1.3-.5,2.21-.64,2.79.48.08.69.24.69.38s-.18.23-.47.23c-1.07,0-4.3.11-5.35.11-.09.62-.32,1-.51,1S176.75,45.45,176.71,45Zm4.4-.83a5.76,5.76,0,0,0,1-.21c.05-.73.13-2.24.13-3-.88.06-3.38.11-4.6.16-.08.09-.19.08-.19.24l.08,2.88Zm1.2-12.25c0-.16-.4-.48-1.38-.86-.24-.08-.37-.18-.37-.26s.19-.17.58-.19a8.07,8.07,0,0,1,1.68.39c.46.17.58.28.58.44s-.07.25-.07.44v4.32c.22,0,.38,0,.62,0,.83-.1.43-.45,1.6-.45.32,0,.94,0,.94.43a.44.44,0,0,1-.44.4l-2.74,0c0,2.42-.61,2.69-.75,2.69s-.24-.18-.24-.64Z"/><path class="cls-2" d="M204.36,34.86c-.74,0-1.33.09-2,.16-.51,0-.64.16-.85.16a2.8,2.8,0,0,1-1-.39,15.11,15.11,0,0,1-6.25,6,1.52,1.52,0,0,1-.56.22s-.05,0-.05,0,.14-.21.48-.45a16,16,0,0,0,5.82-6.81l-2.94.12c-.56.1-.64.31-.91.31s-1.8-.64-1.8-.88c0,0,.05-.07.16-.07a1.91,1.91,0,0,1,.36.05,16.94,16.94,0,0,0,2.08.13c.75,0,1.6,0,2.61-.1.38,0,.36-.14.73-.14s1.07.08,1.07.29-.2.29-.32.49a2.88,2.88,0,0,1-.3.55,14.5,14.5,0,0,0,1.62.06c.64,0,1.39,0,2.13-.06V32.22c-.05-.32-.74-.71-1.4-.93-.25-.08-.38-.16-.38-.24s.16-.15.5-.19c2.08.35,2.36.54,2.36.81,0,.11,0,.24,0,.39l-.13,8.32c-.08,1.06-.4,1.62-.64,1.62s-.27-.23-.27-.71v-3.2l-2.21.13c-.5.1-.56.22-.77.22s-1.28-.4-1.28-.56.05-.06.49-.06a33.74,33.74,0,0,0,3.77-.16Zm-6.55,6.78c0-.28-.42-.46-1.2-.64-.21,0-.53-.06-.53-.17s.06-.11.22-.21a1.65,1.65,0,0,1,.69-.1c.35,0,.79,0,1.3.08s.62.13.62.29,0,.26,0,.48l0,2.39c0,.51.23.64.55.64l4.3,0c1.06-.13.58-.46,1.84-.46,1,0,1.2.25,1.2.51s-.2.4-.54.4h-6.87c-1.13,0-1.5-.66-1.5-1.22Z"/><path class="cls-2" d="M212.91,33.15c-.48.06-.53.22-.75.22s-1.55-.51-1.55-.75c0,0,.06-.08.21-.08l.35,0a13.69,13.69,0,0,0,1.68.08c1.06,0,2.16-.06,2.78-.1s.21-.16.85-.16c.87,0,.9.13.9.2s-.32.35-.47.57a20.69,20.69,0,0,1-1.79,2.42c1.79,1.76,1.75.91,2.5,2a1.92,1.92,0,0,1,.33.93c0,.22-.11.34-.25.34a.55.55,0,0,1-.37-.21c-.51-.58-1.57-1.78-2.5-2.76a15.69,15.69,0,0,1-5.05,3.59s-.05,0-.05,0,.11-.16.3-.29A18.34,18.34,0,0,0,216,32.94c-1,.08-2.3.14-2.91.16Zm7.16,7.45c-1,0-3.56.15-5.56.21-.6,0-.7.27-1,.27a3.23,3.23,0,0,1-1.63-.78s.06-.08.21-.08a.94.94,0,0,1,.22,0,18.5,18.5,0,0,0,2.47.12c1.57,0,3.37-.08,4.67-.14.4,0,.37-.18.85-.18a1.15,1.15,0,0,1,.24,0c.61,0,.75.13.75.24s-.16.3-.16.51a17.51,17.51,0,0,1-.25,4.15c-.12.45-.34.72-.52.72s-.25-.18-.25-.58Zm.22-5.37c-.82,0-1.33.11-1.74.12s-.52.2-.79.2-1.31-.42-1.31-.6.11-.09.29-.09h.78c.82,0,2,0,2.77-.12V32.07c0-.35-.82-.75-1.39-1-.24-.08-.4-.18-.4-.27s.14-.16.54-.19c.18,0,2.31.36,2.31.8,0,.09,0,.21,0,.4l0,5.18a4.7,4.7,0,0,1-.41,2.21c-.1.16-.19.27-.29.27s-.29-.3-.29-1.1Z"/><path class="cls-2" d="M231.86,38.38c-1.14,0-2.64.08-3.57.14-.64,0-.79.28-1.17.28a4.45,4.45,0,0,1-2.08-.88c0-.05.06-.08.19-.08a1.21,1.21,0,0,1,.29,0,16.26,16.26,0,0,0,2.42.09c2.24,0,5.65-.09,8.86-.22.72,0,.48-.26,1.43-.26.43,0,1.29,0,1.29.48,0,.21-.2.4-.54.4h0c-1,0-2.7-.09-4.14-.09-.82,0-1.54,0-1.94.06a12.15,12.15,0,0,1-.25,3.73c-.15.43-.34.67-.5.67s-.29-.22-.29-.73Zm-3.19-2.15c0-.25-.29-3.24-.37-3.85,0-.16-.54-.4-.88-.53-.16-.07-.32-.14-.32-.24s.13-.15.52-.16,1.58.22,1.88.22c1.08,0,4.12-.09,4.69-.13s.28-.12.82-.12,1.23,0,1.23.25-.32.32-.41.56c-.23,1.22-.48,2.34-.66,3,.45.09.64.25.64.38s-.21.26-.53.26c-1,0-4.67.09-5.76.11-.14.59-.34.93-.51.93S228.75,36.71,228.67,36.23Zm0,5.73c0-.3-.39-.46-1.2-.7-.18,0-.31-.11-.31-.18s.15-.16.5-.24a12.18,12.18,0,0,1,1.73.12c.29.06.35.16.35.3s0,.22,0,.4c0,.67,0,1.54,0,2.1,0,.38.21.51.73.54l3.44,0c1.17-.08.64-.46,2-.46.38,0,1.26,0,1.26.56,0,.17-.16.33-.43.33h-6.31c-1.07,0-1.64-.27-1.71-1.05Zm4.89-6.43a4.78,4.78,0,0,0,1.09-.21c.07-1.44.11-2.75.1-3.34-.88,0-3.92.11-5.17.16-.08.08-.18.08-.18.24l.15,3.21Z"/><path class="cls-2" d="M252.31,32.22c0-.4-.68-.77-1.39-1.09-.33-.1-.5-.21-.5-.29s.16-.16.51-.18c.15,0,2.43.36,2.43.82,0,.1-.06.23-.06.43l0,9.91c0,2.23-.22,3.83-.64,3.83-.17,0-.28-.21-.33-1.16V40.32A43.31,43.31,0,0,1,244.83,42c-.46.13-.51.34-.81.34s-2.32-.83-2.32-1.17c0-.06.06-.08.19-.08a1.93,1.93,0,0,1,.35,0,6.87,6.87,0,0,0,1.42.13,39.8,39.8,0,0,0,8.65-1.3Zm-6.15.64c.38,0,.46-.26.46-.34a.57.57,0,0,0-.09-.26.57.57,0,0,1-.19-.28c0-.07.06-.1.19-.1.53,0,.94.34.94.53s-.12.3-.19.48a2.74,2.74,0,0,1,2.51,2.59,2.87,2.87,0,0,1-3.13,2.66c-2.1,0-3.27-1.33-3.27-2.67C243.39,34.3,244.26,33.15,246.16,32.86Zm-1.78,2.64a2.26,2.26,0,0,0,4.49,0,2.26,2.26,0,0,0-4.49,0Z"/><path class="cls-2" d="M269.25,38.73c-1.14,0-3,.13-3.81.21-.43.1-.48.32-.8.32s-2.22-.77-2.22-1c0-.05.06-.08.17-.08a1.77,1.77,0,0,1,.35,0,33.69,33.69,0,0,0,3.68.16c2.39,0,5-.12,7.08-.25.85-.11.61-.36,1.38-.36.43,0,1.69,0,1.69.53,0,.2-.19.39-.51.42-1,0-1.89-.05-3-.05-.85,0-1.82,0-3,.05,0,3.79,0,5.28-.32,6.27-.14.37-.29.58-.41.58s-.24-.27-.26-.9Zm2.19-7.36c.72-.05.58-.19,1.12-.19.36,0,1.16.06,1.16.27s-.39.33-.56.48a25.46,25.46,0,0,1-2.93,2.18,6.53,6.53,0,0,0,2.27.49c.38,0,.58-.06.85-.06s2.08.32,2.08,1c0,.16-.15.27-.47.27a45.86,45.86,0,0,1-5.26-1.39,22.69,22.69,0,0,1-6.39,2.06c-.11,0-.17,0-.17,0s.12-.12.38-.2c2.62-.8,6.24-2.13,8.31-4.45-1.22,0-3.88.16-4.77.22-.44.08-.52.22-.74.22s-1.89-.64-1.89-.86c0-.05.07-.08.19-.08a.78.78,0,0,1,.21,0,25.69,25.69,0,0,0,3.56.19c1,0,2,0,2.94-.08Z"/><path class="cls-2" d="M283.18,34.62c0-.18-.38-.47-.94-.85-.3-.16-.38-.35.24-.35.27,0,1.91.57,1.91,1a24,24,0,0,1-1.32,2.69,11.81,11.81,0,0,0,.87,1.06c.56.67,1.09.46,1.34,2,0,0,0,.1,0,.13,0,.31-.16.51-.35.51a.52.52,0,0,1-.42-.32c-.37-.62-.91-1.82-1.73-3.09-1.57,2.07-3.49,3.69-3.94,3.69a.06.06,0,0,1-.06,0c0-.07.11-.19.32-.37a14.66,14.66,0,0,0,4-6Zm4.49-1.31c0-.39-.63-.71-1.25-1-.19-.08-.39-.2-.39-.29s.13-.15.53-.16a9.15,9.15,0,0,1,1.67.38c.35.13.43.29.43.45s-.05.26-.05.4l0,8.64c0,2.1-.43,2.66-.64,2.66s-.27-.38-.27-1.17V37.29l-1.49.06c-.47.08-.55.24-.74.24s-1.2-.41-1.2-.62c0,0,.1-.09.27-.09l.79,0c.83,0,1.61,0,2.37-.08Zm2.57-1.16c0-.27-.6-.67-1.24-1-.25-.1-.37-.19-.37-.27s.16-.15.53-.16a15.17,15.17,0,0,1,1.77.49c.27.13.34.24.34.37s-.07.24-.07.42V43.29c-.06,1.49-.35,2.28-.65,2.37s-.29-.16-.31-1Z"/><path class="cls-2" d="M308.24,43.33c-1.07-.07-2.4-.1-3.77-.1-2.68,0-5.52.11-7.05.26-.35.12-.44.28-.72.28a5.14,5.14,0,0,1-2.09-.94s.06-.08.21-.08H295a28.53,28.53,0,0,0,4.24.18c0-.32-.08-1.15-.16-1.68-.06-.22-.29-.32-1.07-.61-.16,0-.27-.09-.27-.16s.14-.14.49-.19c1.65.11,1.88.27,1.88.51,0,.08,0,.18,0,.29s0,1.51.05,1.82c.55,0,2.31,0,3.39-.09.05-.37.12-1.09.15-2.08,0-.35-.37-.5-.75-.69-.13,0-.23-.1-.23-.14s.13-.13.48-.18c1.41.24,1.72.38,1.72.58s-.12.27-.18.46c-.08.48-.24,1.36-.38,2a10.24,10.24,0,0,0,1.48-.11c.55,0,.45-.3,1.24-.3.43,0,1.76,0,1.76.63,0,.18-.15.33-.47.33ZM301,32.7a.41.41,0,0,0,.34-.68c-.15-.12-.23-.22-.23-.28s.07-.1.21-.1c.55,0,1,.32,1,.51s-.24.32-.26.55c2.28.33,3.33,1.77,3.33,3.21,0,1.6-1.36,3.21-3.76,3.21a3.44,3.44,0,0,1-3.74-3.29C297.94,34.43,298.91,33,301,32.7Zm-2.19,3.15a2.84,2.84,0,1,0,2.83-2.53A2.57,2.57,0,0,0,298.85,35.85Z"/><path class="cls-2" d="M320.34,37.35a3.41,3.41,0,0,1-3,2,4.74,4.74,0,0,1-1.81-.54,4.45,4.45,0,0,0-1.71-.54,3.72,3.72,0,0,0-2.58,1.26l-.18-.14a3.48,3.48,0,0,1,2.77-2,4.92,4.92,0,0,1,1.79.53,4.86,4.86,0,0,0,1.73.55,3.66,3.66,0,0,0,2.81-1.24Z"/></g></g></svg>