<svg xmlns="http://www.w3.org/2000/svg" viewBox="0 0 439.37 56.4"><defs><style>.cls-1{fill:#f1f2f2;}.cls-2{fill:#231f20;}</style></defs><g id="Layer_2" data-name="Layer 2"><g id="레이어_2" data-name="레이어 2"><rect class="cls-1" width="439.37" height="56.4"/><path class="cls-2" d="M134.39,12.94c0-.36-.63-.76-1.38-1.08-.16-.06-.46-.16-.46-.25s.12-.13.46-.19c.1,0,2.5.24,2.5.83,0,.13-.08.29-.08.49l-.07,4.39a5.39,5.39,0,0,1-.4,2.53c-.12.17-.22.25-.3.25s-.27-.41-.27-1V17.69l-1.54.11c-.29.07-.34.21-.54.21a3.63,3.63,0,0,1-1.31-.56,4.71,4.71,0,0,1-.15,1.34c-.14.31-.34.57-.5.57s-.24-.21-.25-.74l-4,.06c-.16.61-.43,1-.64,1s-.26-.19-.26-.6,0-3.78-.05-4.54c0-.22,0-.38-1.08-.75-.2-.05-.31-.11-.31-.19s.15-.18.51-.24c1.64.08,1.89.22,1.89.43s0,.21,0,.32v1.27l4-.08V13.72c0-.24-.37-.43-1-.67-.21-.05-.35-.15-.35-.23s.16-.16.56-.19c1.55.18,1.77.32,1.77.56s0,.23,0,.39,0,.61,0,1a2.41,2.41,0,0,1,.41,0h.94c.74,0,1.22,0,2-.08Zm-8.32,2.83v2.45l4-.07V15.67Zm2.2,7.91c0-.18-.33-.29-.85-.42-.16-.05-.3-.1-.3-.16s.18-.21.72-.21a5.75,5.75,0,0,1,1.57.19c1.47,0,2.37,0,3.89-.06a6.55,6.55,0,0,0,.85-.14c0-.26.09-1.14.14-1.94-1,0-3.18.1-4.74.16-.46.1-.54.27-.81.27s-1.57-.53-1.57-.72.08-.08.25-.08a1.19,1.19,0,0,1,.25,0c.54.05,1.31.08,2.19.08,1.3,0,2.81-.07,4.08-.15.3,0,.27-.11.61-.11a2.77,2.77,0,0,1,.37,0c.48,0,.62.11.62.24s-.16.27-.22.43a9.16,9.16,0,0,0-.56,1.7c.43.08.65.24.65.36s-.19.23-.54.23c-1.22,0-3.6.08-5.32.09-.16.1-.28.07-.28.26v1.39c0,.31.16.37.4.37l1.36,0,2.75,0c1-.12.66-.42,1.65-.42.43,0,1.23,0,1.23.46,0,.2-.19.37-.54.37H129.7c-1.17,0-1.43-.41-1.43-.88ZM134.39,15c-.66,0-1.25.06-1.52.1s-.4.2-.61.2a2.77,2.77,0,0,1-.94-.33l-.24-.16c0,.83,0,1.76-.08,2.51l1,0a23.07,23.07,0,0,0,2.37-.12Z"/><path class="cls-2" d="M139,21.55a17.39,17.39,0,0,0,4.57-6.74c0-.23,0-.35-.75-1-.4-.27-.35-.43-.05-.43a2.42,2.42,0,0,1,.63.13c1.2.54,1.54.8,1.54,1.07A13.06,13.06,0,0,1,143.71,17a7.64,7.64,0,0,0,1.72,1.76c.65.53.84.35,1.39,1.47A1.82,1.82,0,0,1,147,21c0,.3-.14.48-.32.48a.46.46,0,0,1-.33-.2c-.53-.65-1.67-2.22-3-3.9A15.13,15.13,0,0,1,138.8,22c-.05,0-.06,0-.06,0S138.82,21.72,139,21.55Zm10.66-8.76c0-.27-.88-.65-1.56-1-.17-.06-.28-.14-.28-.21s.19-.17.67-.19a13.24,13.24,0,0,1,1.84.43c.34.13.42.24.42.4s0,.28,0,.52V18.6h.8c.75-.11.49-.41,1.52-.41.3,0,1,0,1,.49,0,.23-.19.42-.54.42h-2.77v4.64a6.25,6.25,0,0,1-.4,2.37c-.13.19-.26.29-.37.29s-.24-.21-.24-.74Z"/><path class="cls-2" d="M163,18.2c-.18,1.54-1.3,2.71-3.4,2.71-2.37,0-3.69-1.47-3.69-3.08,0-1.36,1-2.7,3-3,.28-.06.57-.14.57-.43a.58.58,0,0,0-.11-.3.48.48,0,0,1-.16-.26s.05-.1.16-.1a1.28,1.28,0,0,1,1,.61c0,.13-.19.24-.32.45,1.95.43,2.82,1.5,2.91,2.91Zm-6.09-.32a2.44,2.44,0,0,0,2.68,2.4,2.4,2.4,0,1,0,0-4.8A2.44,2.44,0,0,0,156.86,17.88Zm9.53-4.9c0-.3-.51-.68-1.43-1.08-.22-.08-.35-.18-.35-.26s.16-.18.53-.21a10.65,10.65,0,0,1,2,.51c.24.1.29.21.29.36s0,.25,0,.43v9.43c0,2.94-.1,3.34-.39,3.95-.11.19-.22.29-.32.29s-.22-.19-.22-.69Z"/><path class="cls-2" d="M182.39,23.6c.67-.05.59-.35,1.44-.35.38,0,1.66,0,1.66.55,0,.21-.2.39-.54.39h-.06c-1.32-.1-3-.11-4.49-.11-2.05,0-4.11.08-6.17.21-.56.12-.63.35-.92.35s-2.13-.74-2.13-1c0-.05,0-.08.18-.08a1.63,1.63,0,0,1,.35,0,13.82,13.82,0,0,0,3.15.23c1.93,0,4.38-.1,6.89-.15Zm-1.94-10c.71-.06.16-.21,1.17-.21.72,0,.94.1.94.23s-.33.35-.51.53a26.63,26.63,0,0,1-3.28,3,12.4,12.4,0,0,0,3,.64c.21,0,.38,0,.58,0,.72,0,2.41.56,2.41,1.1,0,.16-.16.26-.46.26a61.75,61.75,0,0,1-6-1.68,22.5,22.5,0,0,1-6.58,2.9c-.08,0-.11,0-.11,0s.13-.14.34-.22c2.43-1,6.27-2.88,8.69-6-.64,0-3.84.16-5,.24-.45.09-.51.27-.75.27s-1.84-.61-1.84-.9c0,0,.06-.08.19-.08a2.51,2.51,0,0,1,.32,0,14,14,0,0,0,2.4.17C177.63,13.8,180.16,13.61,180.45,13.59Z"/><path class="cls-2" d="M187.68,27c.8-.72,1.09-1.09,1.09-1.6,0-.24-.1-.4-.32-.4a.74.74,0,0,1-.59-.77.81.81,0,0,1,.78-.8c.48,0,.91.3.91,1a3.4,3.4,0,0,1-1.69,2.72Z"/><path class="cls-2" d="M204,21.29c0-.27-.27-.43-.78-.69-.16,0-.26-.12-.26-.17s.14-.15.46-.16c1.4.14,1.62.24,1.62.45s0,.2,0,.35L205,23.74c.7,0,1.44,0,3.21-.13,1-.14,1-.36,1.59-.36s1.87.17,1.87.68c0,.2-.24.36-.66.36h-.16c-1.36-.13-3-.2-4.72-.2-1.89,0-3.85.08-5.58.2-.64.16-.79.33-1.09.33s-2.16-.75-2.16-1c0-.07.08-.12.25-.12a.58.58,0,0,1,.19,0,26,26,0,0,0,4.12.27l2.19,0Zm-3.26-2c-.1-1.07-.2-2.64-.29-4.45,0-.26-.07-.58-1.07-1-.23,0-.39-.09-.39-.17s.13-.18.45-.24a13.12,13.12,0,0,1,1.95.3c.82,0,4.16-.08,5.53-.14.52-.05.17-.18.89-.18s1.11.06,1.11.24-.23.37-.31.58c-.32,1.44-.65,3.12-.88,4,.47.06.67.22.67.35s-.33.21-.43.21l-6.4.16c-.16.61-.39.88-.56.88S200.75,19.6,200.74,19.26Zm.81-.8c.71,0,3.67-.05,4.74-.11.48-.05.48-.1.9-.15.11-1,.22-3.26.22-4.19-1.06,0-4.85.13-5.66.13-.21.08-.29,0-.29.28Z"/><path class="cls-2" d="M216.82,13.8c.44-.06.46-.34.46-.37a.35.35,0,0,0-.11-.25c-.13-.13-.19-.23-.19-.29s.06-.1.19-.1c.41,0,1,.27,1,.48s-.23.32-.29.55c1.85.37,2.67,1.52,2.67,2.67a3,3,0,0,1-3.27,2.75c-2,0-3.31-1.2-3.31-2.72C214,15.31,214.88,14.09,216.82,13.8Zm-1.92,2.74a2.36,2.36,0,0,0,4.68,0,2.36,2.36,0,0,0-4.68,0Zm6.37,4.18a.63.63,0,0,0-.2-.42.28.28,0,0,1-.14-.21c0-.06.07-.11.19-.11.31,0,1.06.32,1.06.54s-.18.28-.24.47c1.78.32,2.61,1.45,2.61,2.56s-1.09,2.59-3.16,2.59-3.07-1.26-3.07-2.61c0-1.13.88-2.3,2.71-2.56A.24.24,0,0,0,221.27,20.72Zm-2.07,2.75a2.26,2.26,0,1,0,2.24-2A2,2,0,0,0,219.2,23.47Zm4.45-10.65c0-.16-.73-.56-1.39-.84-.26-.1-.39-.2-.39-.28s.21-.17.58-.17a16.07,16.07,0,0,1,1.75.4c.43.14.52.25.52.43s-.05.27-.05.51l0,2.66.8,0c.58-.09.36-.38,1.35-.38.27,0,1,0,1,.45,0,.17-.18.35-.5.35l-2.62,0v2.8c.17,0,.51,0,.78,0,.55-.09.29-.33,1.35-.33.3,0,1,0,1,.41,0,.18-.19.36-.51.37l-2.64,0c-.1,1.06-.48,1.49-.66,1.49s-.27-.26-.27-.92Z"/><path class="cls-2" d="M241.33,21.29c0-.27-.27-.43-.78-.69-.16,0-.26-.12-.26-.17s.14-.15.46-.16c1.4.14,1.62.24,1.62.45s-.05.2-.05.35l0,2.67c.71,0,1.45,0,3.22-.13,1-.14,1-.36,1.59-.36s1.87.17,1.87.68c0,.2-.24.36-.66.36h-.16c-1.36-.13-3-.2-4.72-.2-1.89,0-3.86.08-5.58.2-.65.16-.79.33-1.09.33s-2.16-.75-2.16-1c0-.07.08-.12.25-.12a.58.58,0,0,1,.19,0,25.91,25.91,0,0,0,4.12.27l2.19,0Zm-3.71-6.72c0-.3-.64-.58-1.29-.83-.15,0-.3-.11-.3-.2s.15-.17.55-.19a8,8,0,0,1,2.14.4l4.42-.05c1.79-.12.77-.51,2.61-.51h.14c.48,0,.75.24.75.47s-.22.4-.73.4c-2.53.08-5.43.09-6.9.13-.18.08-.35,0-.35.31v3.57c0,.61,0,.61,2.22.61,1,0,2.07,0,3-.05s.72-.46,2.15-.46c.78,0,.94.32.94.46s-.22.41-.62.41c-.75,0-3.42.06-5.38.06l-2.06,0a1.23,1.23,0,0,1-1.27-1.18Z"/><path class="cls-2" d="M257.27,19.53c-1.14,0-3,.13-3.81.21-.44.09-.48.32-.8.32s-2.23-.77-2.23-1c0-.05.07-.09.18-.09A1.93,1.93,0,0,1,251,19a33.69,33.69,0,0,0,3.68.16c2.39,0,5-.12,7.08-.25.84-.12.6-.36,1.37-.36.43,0,1.7,0,1.7.53,0,.2-.19.39-.51.42-1,0-1.89-.05-3-.05-.85,0-1.82,0-3,.05,0,3.79,0,5.28-.32,6.27-.15.37-.29.58-.42.58s-.24-.27-.25-.9ZM255,12.36c1,0,4.19-.08,4.93-.13.49,0,.28-.19.78-.19s1.19.08,1.19.3-.24.36-.36.61c-.32,1.19-.59,2.31-.77,3.27.5,0,.71.19.71.32s-.37.22-.72.22c-1.31,0-4.83.1-5.83.15-.08.54-.3.88-.49.88s-.31-.21-.37-.71-.22-2.78-.35-3.9c0-.31-.66-.56-.88-.66s-.37-.18-.37-.26.17-.19.51-.22a11.33,11.33,0,0,1,1.79.32Zm4.34,4a8.65,8.65,0,0,0,.86-.16c.08-1,.19-2.93.19-3.57-.75.06-4.14.14-5.44.17-.07.07-.18.07-.18.26l.15,3.42Z"/><path class="cls-2" d="M273.2,17.66c0-.24-.14-.39-.8-.64-.24-.07-.38-.16-.38-.26s.16-.16.51-.19c1.47.1,1.71.24,1.71.46s-.05.21-.05.34V19c.56,0,2.65-.13,3.42-.2.6-.06.4-.33,1.17-.33a11,11,0,0,1,1.48.16c.4.08.59.27.59.45s-.21.35-.59.35L277,19.37c-3.28,0-7,.26-7.76.37-.37.13-.43.32-.69.32A5,5,0,0,1,266.46,19c0-.05.05-.08.21-.08a1.39,1.39,0,0,1,.32,0,18.12,18.12,0,0,0,2.59.13c1.12,0,2.41,0,3.62-.06ZM267.82,17c3.09-1.25,5.38-3.62,5.59-4.26,0-.19-.5-.53-1-.78s-.46-.37.1-.37c.22,0,2.3.56,2.3,1a.64.64,0,0,1-.14.32c-.24.29-.67.83-1,1.14a15.25,15.25,0,0,0,2.24.76c1.36.36,1.17-.17,3.07.76.35.2.51.44.51.62s-.14.27-.4.27a1.45,1.45,0,0,1-.6-.14c-1.85-.67-4-1.44-5.13-2a14.5,14.5,0,0,1-5.79,3c-.1,0-.14,0-.14,0S267.57,17.05,267.82,17Zm5.75,3.75a.62.62,0,0,0-.19-.42.28.28,0,0,1-.16-.21c0-.06.06-.11.21-.11.32,0,1,.32,1,.54s-.18.28-.23.47c1.76.32,2.59,1.44,2.59,2.54,0,1.33-1.13,2.61-3.13,2.61s-3.08-1.26-3.08-2.61c0-1.13.88-2.3,2.73-2.56A.24.24,0,0,0,273.57,20.72Zm-2.07,2.75a2.26,2.26,0,1,0,2.25-2A2,2,0,0,0,271.5,23.47Z"/><path class="cls-2" d="M301.59,19.24c-.88-.08-1.94-.09-3-.09-3.27,0-6.5.17-7.89.32-.47.09-.53.28-.8.28a5.07,5.07,0,0,1-2.1-1c0-.07.06-.1.19-.1a1.57,1.57,0,0,1,.32.05,13.82,13.82,0,0,0,2.71.18c2.19,0,5.18-.16,8-.28.83,0,.64-.33,1.55-.33s1.51.09,1.51.53c0,.21-.21.41-.55.41Zm-10.65-6c-.06-.36-.51-.51-1.2-.73-.14,0-.2-.08-.2-.13s.14-.16.41-.19a6.29,6.29,0,0,1,2,.33c1.24,0,2.72,0,4.28-.08,1.27-.09.68-.4,2-.4.33,0,1.15,0,1.15.4,0,.2-.26.37-.74.37-1.68.08-4.89.11-6.49.13-.12.1-.2,0-.2.3,0,.66,0,1.78,0,2.5,0,.56.11.56,1.79.56.85,0,1.79,0,3.09-.13.88-.12.4-.44,1.92-.44.56,0,.78.2.78.41s-.24.42-.62.43c-.56,0-2.48.05-3.38.1l-1.06.05h-1.95c-1.22,0-1.57-.4-1.6-1Zm4,7.5a.66.66,0,0,0-.19-.42.28.28,0,0,1-.16-.21c0-.06.06-.11.2-.11.32,0,1,.32,1,.54s-.17.28-.22.47c1.76.32,2.59,1.44,2.59,2.54,0,1.33-1.13,2.61-3.13,2.61S292,24.88,292,23.53c0-1.13.88-2.3,2.72-2.56A.24.24,0,0,0,294.9,20.72Zm-2.07,2.75a2.26,2.26,0,1,0,2.24-2A2,2,0,0,0,292.83,23.47Z"/><path class="cls-2" d="M306.22,24.32a.88.88,0,1,1-1.76,0,.88.88,0,1,1,1.76,0Z"/><path class="cls-2" d="M310.88,24.32a.88.88,0,1,1-1.76,0,.88.88,0,1,1,1.76,0Z"/><path class="cls-2" d="M315.54,24.32a.88.88,0,1,1-1.76,0,.88.88,0,1,1,1.76,0Z"/><path class="cls-2" d="M113.84,33.31c-.58.08-.66.27-.93.27s-1.61-.56-1.61-.8c0-.05.06-.08.19-.08a1.58,1.58,0,0,1,.38,0c.67.06,1.43.09,2.21.09s1.62,0,2.43-.05c.47,0,.37-.17.88-.17.36,0,1,.08,1,.27s-.26.29-.39.48a15.89,15.89,0,0,1-6.81,6.55,1.61,1.61,0,0,1-.53.2s0,0,0,0,.16-.21.46-.41a17.82,17.82,0,0,0,5.77-6.47Zm7.08,6.91c-1,.05-4.2.11-5.38.19-.55.11-.63.29-.9.29s-1.78-.53-1.78-.82c0-.06.07-.09.2-.09l.25,0a18.64,18.64,0,0,0,2.53.11c1.49,0,3.16-.06,4.42-.11.4,0,.37-.18.75-.18,1.11,0,1.11.23,1.11.28s-.15.3-.18.49a20.19,20.19,0,0,1-.26,4.48c-.14.45-.33.72-.51.72s-.22-.17-.25-.59Zm.06-8.28c0-.16-.4-.48-1.38-.86-.24-.08-.36-.18-.36-.26s.19-.17.57-.19a8.07,8.07,0,0,1,1.68.39c.47.17.58.28.58.44s-.07.24-.07.44v4.32c.22,0,.38,0,.62,0,.83-.1.43-.45,1.6-.45.32,0,1,0,1,.43a.45.45,0,0,1-.45.4l-2.74,0c0,2.42-.61,2.69-.75,2.69s-.24-.18-.24-.64Z"/><path class="cls-2" d="M133.2,36.86c0-.24-.14-.39-.8-.64-.24-.07-.38-.16-.38-.26s.16-.16.51-.19c1.47.1,1.71.24,1.71.46s-.05.21-.05.34v1.62c.56,0,2.65-.13,3.42-.19.6-.07.4-.34,1.17-.34a11,11,0,0,1,1.48.16c.4.08.59.27.59.45s-.21.35-.59.35l-3.21,0c-3.28,0-7,.26-7.76.37-.37.13-.43.32-.69.32a5,5,0,0,1-2.13-1.06s.05-.08.21-.08a1.06,1.06,0,0,1,.32,0,20,20,0,0,0,2.59.12c1.12,0,2.41,0,3.62-.06Zm2.07-5.51a11.1,11.1,0,0,1,1.53-.21c.63,0,.82.1.82.21s-.34.32-.53.43a21.56,21.56,0,0,1-2.9,2.2,10,10,0,0,0,3.73.41c.44,0,1.81.31,1.81.82,0,.16-.13.27-.43.27s-4.43-.78-5.75-1.18a30.35,30.35,0,0,1-6.43,2.21c-.1,0-.14,0-.14,0s.14-.15.48-.24c2.59-.87,6.35-2.47,8.19-4.48-1.15,0-3.28.16-4.8.24-.35.08-.4.24-.64.24s-1.67-.55-1.67-.77c0-.05.05-.07.18-.07a1.57,1.57,0,0,1,.29,0,13.82,13.82,0,0,0,2,.11c1.17,0,2.61-.06,4.08-.16Zm-1.7,8.57a.62.62,0,0,0-.19-.42.28.28,0,0,1-.16-.21c0-.06.06-.11.21-.11.32,0,1,.32,1,.54s-.18.28-.23.47c1.76.32,2.59,1.44,2.59,2.54,0,1.33-1.13,2.61-3.13,2.61s-3.08-1.26-3.08-2.61c0-1.13.88-2.3,2.73-2.56A.24.24,0,0,0,133.57,39.92Zm-2.07,2.75a2.26,2.26,0,1,0,2.25-2A2,2,0,0,0,131.5,42.67Z"/><path class="cls-2" d="M154.31,33.77a2.21,2.21,0,0,1,.67-.11c.86,0,1,.06,1,.21s-.28.36-.4.59a28,28,0,0,1-2.17,3.18c.37.34,1.06.9,1.4,1.16.62.4.83.14,1.61,1.29a1.62,1.62,0,0,1,.32.83c0,.23-.11.36-.28.36A.68.68,0,0,1,156,41c-.47-.51-1.32-1.49-2.89-3.06-1.92,2.13-4.86,4.07-5.34,4.07,0,0-.07,0-.07,0s.12-.2.37-.39a19.19,19.19,0,0,0,6.45-7.39c-.84,0-2.89.16-3.41.19s-.48.27-.72.27-1.63-.62-1.63-.81.07-.08.19-.08a1.28,1.28,0,0,1,.31,0,14.65,14.65,0,0,0,1.71.08C152.07,33.9,153.87,33.82,154.31,33.77Zm4-1.78c0-.27-.88-.65-1.56-1-.17-.06-.28-.14-.28-.21s.19-.17.67-.19a13.24,13.24,0,0,1,1.84.43c.34.13.42.24.42.4s-.05.28-.05.52V37.8h.8c.75-.11.49-.41,1.52-.41.3,0,1,0,1,.49,0,.23-.2.42-.55.42h-2.77v4.64a6.25,6.25,0,0,1-.4,2.37c-.13.19-.26.29-.37.29s-.24-.21-.24-.74Z"/><path class="cls-2" d="M164.11,38.59a14,14,0,0,0,4.52-5.28c0-.05.11-.32.11-.34s-.26-.45-.83-.85c-.24-.14-.33-.24-.33-.32s.15-.14.34-.14a1.67,1.67,0,0,1,.39.06c.28.1,1.74.74,1.74,1.14a9,9,0,0,1-1.09,2,5.63,5.63,0,0,0,1.19,1.38c.43.38.62-.07,1.44,1.61a.85.85,0,0,1,.12.42.35.35,0,0,1-.35.37.59.59,0,0,1-.46-.29c-.75-1-1.65-2.22-2.27-3.1A13.87,13.87,0,0,1,163.92,39s-.07,0-.07,0S163.93,38.72,164.11,38.59Zm10.63,2c-1,0-3.55.15-5.56.21-.6,0-.7.27-1,.27a3.22,3.22,0,0,1-1.64-.78s.07-.08.21-.08a.94.94,0,0,1,.22,0,18.59,18.59,0,0,0,2.47.12c1.57,0,3.38-.08,4.67-.14.4,0,.37-.18.85-.18a1.06,1.06,0,0,1,.24,0c.61,0,.75.13.75.24s-.16.3-.16.51a17.51,17.51,0,0,1-.25,4.15c-.11.45-.34.72-.51.72s-.26-.18-.26-.58Zm.22-5.37c-.81,0-1.32.11-1.74.12s-.51.2-.79.2-1.31-.42-1.31-.6.11-.09.29-.09h.78c.82,0,2,0,2.77-.12V32.07c0-.35-.81-.75-1.39-1-.24-.08-.4-.18-.4-.27s.15-.16.55-.19c.17,0,2.3.36,2.3.8,0,.09-.05.21-.05.4V37a4.82,4.82,0,0,1-.42,2.21c-.1.16-.19.27-.29.27s-.29-.3-.29-1.1Z"/><path class="cls-2" d="M183.68,42.89c0-.19-.34-.28-.86-.43-.15,0-.29-.08-.29-.14s.32-.23.61-.23a6.61,6.61,0,0,1,1.68.21c1.49,0,2.29,0,3.81-.1a7.28,7.28,0,0,0,.88-.14c.05-.34.06-1,.09-1.76-1,0-3.13.08-4.67.16-.46.1-.54.26-.82.26s-1.55-.52-1.55-.71.06-.08.22-.08a1.06,1.06,0,0,1,.24,0,20.44,20.44,0,0,0,2.12.09l1.49,0c0-.11,0-.22,0-.38V37.9l-3.49.16c-.68.08-.7.35-1.07.35s-2.16-.67-2.16-1c0-.06.06-.1.18-.1a1.18,1.18,0,0,1,.25,0,20.66,20.66,0,0,0,3.16.17c.43,0,6.58-.09,8-.29.65-.11.45-.28,1.26-.28.51,0,1.44,0,1.44.52,0,.2-.19.37-.49.37h-.08c-.69,0-1.8-.05-2.9-.05s-2.45,0-3.11.07c0,.58,0,1.82-.36,2.1.7,0,1.4-.07,2.05-.12a1.25,1.25,0,0,1,.54-.12c1,0,1,.17,1,.24s-.14.3-.21.46c-.17.5-.43,1.22-.51,1.52.43.08.66.24.66.37s-.19.21-.56.21L185,42.7c-.16.08-.29.06-.29.24v1.39c0,.31.16.37.4.37l1.35,0,2.69,0c1-.12.64-.42,1.63-.42.45,0,1.25,0,1.25.46,0,.2-.21.37-.56.37H185.1c-1.16,0-1.42-.41-1.42-.88Zm.15-7c-.08-1-.16-2.11-.25-3.09,0-.35,0-.5-1.07-.88q-.24-.07-.24-.18c0-.09.13-.17.43-.2a10.27,10.27,0,0,1,1.85.2c.75,0,3.23-.07,4.56-.12.54-.08.21-.18,1-.18.49,0,1,.05,1,.24s-.29.37-.38.58c-.23.85-.45,1.74-.64,2.67.56.16.75.3.75.42s-.18.17-.4.19c-1.47,0-4.84.08-5.79.09-.18.5-.39.72-.55.72S183.86,36.15,183.83,35.85Zm.8-.67c.7,0,3,0,4.08-.07a2.28,2.28,0,0,0,.86-.2c0-1,0-1.89.05-2.9-1,0-3.92.08-4.75.13-.2.09-.31,0-.31.22Z"/><path class="cls-2" d="M212.36,34.86c-.74,0-1.33.09-2,.16-.51,0-.64.16-.84.16a2.76,2.76,0,0,1-1-.39,15.11,15.11,0,0,1-6.25,6,1.52,1.52,0,0,1-.56.22s-.05,0-.05,0,.14-.21.48-.45a16,16,0,0,0,5.82-6.82l-2.94.13c-.56.1-.64.31-.91.31s-1.8-.64-1.8-.88c0,0,.05-.07.16-.07a1.91,1.91,0,0,1,.36.05,17.07,17.07,0,0,0,2.08.13c.75,0,1.6,0,2.61-.1.38,0,.36-.14.73-.14s1.08.08,1.08.29-.21.28-.32.49a3.59,3.59,0,0,1-.31.55,14.5,14.5,0,0,0,1.62.06c.64,0,1.39,0,2.13-.06V32.22c-.05-.32-.74-.71-1.4-.93-.25-.08-.38-.16-.38-.24s.16-.15.5-.19c2.08.35,2.36.54,2.36.81,0,.11,0,.24,0,.39l-.13,8.32c-.08,1.06-.4,1.62-.64,1.62s-.27-.23-.27-.71v-3.2l-2.21.13c-.5.1-.56.22-.77.22s-1.28-.4-1.28-.56.05-.06.49-.06a33.74,33.74,0,0,0,3.77-.16Zm-6.55,6.78c0-.28-.42-.46-1.2-.64-.21,0-.53-.06-.53-.17s.07-.11.22-.21a1.65,1.65,0,0,1,.69-.1c.35,0,.79,0,1.3.08s.62.13.62.29,0,.26,0,.48l0,2.39c0,.51.23.64.55.64l4.3,0c1.06-.13.58-.46,1.84-.46,1,0,1.21.25,1.21.51s-.21.4-.55.4h-6.87c-1.13,0-1.5-.66-1.5-1.22Z"/><path class="cls-2" d="M220.91,33.15c-.48.06-.53.22-.75.22s-1.55-.51-1.55-.75c0,0,.06-.08.21-.08l.35,0a13.8,13.8,0,0,0,1.68.08c1.06,0,2.16-.07,2.78-.1s.21-.16.85-.16c.87,0,.9.13.9.19s-.32.36-.46.58a22,22,0,0,1-1.8,2.42c1.8,1.76,1.75.91,2.5,2a1.92,1.92,0,0,1,.33.93c0,.22-.11.34-.25.34a.55.55,0,0,1-.37-.21c-.51-.58-1.57-1.78-2.5-2.76a15.69,15.69,0,0,1-5.05,3.59s-.05,0-.05,0,.11-.16.3-.29A18.34,18.34,0,0,0,224,32.94c-1,.08-2.3.14-2.91.16Zm7.16,7.45c-1,0-3.56.15-5.56.21-.6,0-.7.27-1,.27a3.23,3.23,0,0,1-1.63-.78s.07-.08.21-.08a.94.94,0,0,1,.22,0,18.5,18.5,0,0,0,2.47.12c1.57,0,3.37-.08,4.67-.14.4,0,.37-.18.85-.18a1.15,1.15,0,0,1,.24,0c.61,0,.75.13.75.24s-.16.3-.16.51a17.51,17.51,0,0,1-.25,4.15c-.12.45-.34.72-.52.72s-.25-.18-.25-.58Zm.22-5.37c-.81,0-1.33.11-1.74.12s-.52.2-.79.2-1.31-.42-1.31-.6.11-.09.29-.09h.78c.82,0,2,0,2.77-.12V32.07c0-.35-.81-.75-1.39-1-.24-.08-.4-.18-.4-.27s.14-.16.54-.19c.18,0,2.31.36,2.31.8,0,.09,0,.21,0,.4l0,5.18a4.7,4.7,0,0,1-.41,2.21c-.1.16-.19.27-.29.27s-.29-.3-.29-1.1Z"/><path class="cls-2" d="M239.86,38.38c-1.14,0-2.64.08-3.57.14-.64,0-.79.28-1.17.28a4.34,4.34,0,0,1-2.08-.89s.06-.08.19-.08a.89.89,0,0,1,.29,0,16.26,16.26,0,0,0,2.42.09c2.24,0,5.65-.09,8.86-.22.72,0,.48-.26,1.43-.26.43,0,1.29,0,1.29.48,0,.21-.2.4-.54.4h0c-1,0-2.71-.09-4.15-.09-.82,0-1.54,0-1.94.06a12.15,12.15,0,0,1-.25,3.73c-.15.43-.34.67-.5.67s-.29-.22-.29-.73Zm-3.19-2.15c0-.25-.29-3.24-.37-3.85,0-.16-.54-.4-.88-.53-.16-.07-.32-.15-.32-.24s.13-.15.52-.16,1.58.22,1.88.22c1.08,0,4.12-.09,4.69-.13s.28-.12.82-.12,1.23,0,1.23.25-.32.32-.41.56c-.23,1.22-.48,2.34-.66,3,.45.09.64.25.64.38s-.21.26-.53.26c-1,0-4.67.09-5.76.11-.14.59-.34.93-.51.93S236.75,36.71,236.67,36.23Zm0,5.73c0-.3-.39-.46-1.2-.7-.18,0-.31-.11-.31-.18s.15-.16.5-.24a12.18,12.18,0,0,1,1.73.12c.29.06.35.16.35.3s0,.22,0,.4c0,.67,0,1.54,0,2.1,0,.38.21.51.73.54l3.44,0c1.17-.08.64-.46,2-.46.38,0,1.26,0,1.26.56,0,.17-.16.33-.43.33h-6.3c-1.08,0-1.65-.27-1.72-1.05Zm4.9-6.43a4.79,4.79,0,0,0,1.08-.21c.07-1.44.11-2.75.1-3.34-.88,0-3.92.11-5.17.16-.08.08-.18.08-.18.24l.15,3.21Z"/><path class="cls-2" d="M260.31,32.22c0-.4-.67-.77-1.39-1.09-.33-.1-.5-.21-.5-.29s.16-.16.51-.18c.15,0,2.43.36,2.43.82a4,4,0,0,0-.06.43l0,9.91c0,2.23-.22,3.83-.64,3.83-.17,0-.28-.21-.33-1.16V40.32A43.31,43.31,0,0,1,252.83,42c-.46.13-.51.34-.81.34s-2.32-.83-2.32-1.17c0-.06.06-.08.19-.08a1.93,1.93,0,0,1,.35,0,6.91,6.91,0,0,0,1.43.13,39.8,39.8,0,0,0,8.64-1.3Zm-6.15.64c.39,0,.47-.26.47-.34a.61.61,0,0,0-.1-.26.57.57,0,0,1-.19-.28c0-.07.06-.1.19-.1.53,0,.94.34.94.53s-.12.3-.19.48a2.73,2.73,0,0,1,2.51,2.59,2.87,2.87,0,0,1-3.13,2.66c-2.1,0-3.27-1.33-3.27-2.67C251.39,34.3,252.26,33.15,254.16,32.86Zm-1.78,2.64a2.26,2.26,0,0,0,4.49,0,2.26,2.26,0,0,0-4.49,0Z"/><path class="cls-2" d="M277.25,38.73c-1.14,0-3,.13-3.81.21-.43.1-.48.32-.8.32s-2.22-.77-2.22-1c0-.05.06-.08.17-.08a1.77,1.77,0,0,1,.35,0,33.77,33.77,0,0,0,3.69.16c2.38,0,5-.12,7.07-.25.85-.11.61-.36,1.38-.36.43,0,1.69,0,1.69.53,0,.2-.19.39-.51.42-1,0-1.89-.05-3-.05-.85,0-1.82,0-3,.05,0,3.79,0,5.28-.32,6.27-.14.37-.29.58-.41.58s-.24-.27-.26-.9Zm2.19-7.36c.72-.05.58-.19,1.12-.19.36,0,1.16.06,1.16.27s-.39.33-.56.48a25.46,25.46,0,0,1-2.93,2.18,6.53,6.53,0,0,0,2.27.49c.38,0,.58-.06.85-.06s2.08.32,2.08,1c0,.16-.15.27-.47.27a45.86,45.86,0,0,1-5.26-1.39,22.69,22.69,0,0,1-6.39,2.06c-.11,0-.17,0-.17,0s.12-.12.38-.2c2.63-.8,6.24-2.13,8.31-4.45-1.22,0-3.88.16-4.77.22-.43.08-.51.22-.74.22s-1.89-.64-1.89-.86c0-.05.07-.08.19-.08a.78.78,0,0,1,.21,0,25.69,25.69,0,0,0,3.56.19c1,0,2,0,2.94-.08Z"/><path class="cls-2" d="M291.18,34.62c0-.18-.38-.47-.94-.85-.3-.16-.38-.35.24-.35.27,0,1.91.57,1.91,1a24,24,0,0,1-1.32,2.69,11.81,11.81,0,0,0,.87,1.06c.56.67,1.09.46,1.34,2,0,0,0,.1,0,.13,0,.31-.16.51-.35.51a.52.52,0,0,1-.42-.32c-.37-.62-.91-1.82-1.73-3.09-1.57,2.07-3.49,3.69-3.94,3.69a.06.06,0,0,1-.06,0c0-.07.11-.19.32-.37a14.66,14.66,0,0,0,4-6Zm4.49-1.31c0-.39-.63-.71-1.25-1-.19-.08-.39-.2-.39-.29s.13-.15.53-.16a9.15,9.15,0,0,1,1.67.38c.35.13.43.29.43.45s-.05.26-.05.4l0,8.64c0,2.1-.43,2.66-.64,2.66s-.27-.38-.27-1.17V37.29l-1.49.06c-.47.08-.55.24-.74.24s-1.2-.41-1.2-.62c0,0,.1-.09.27-.09l.79,0c.83,0,1.62,0,2.37-.08Zm2.58-1.16c0-.27-.61-.67-1.25-1-.25-.1-.37-.19-.37-.27s.16-.15.53-.16a15.17,15.17,0,0,1,1.77.49c.27.13.34.24.34.37s-.07.24-.07.42V43.29c-.06,1.49-.35,2.28-.65,2.37-.14,0-.29-.16-.3-1Z"/><path class="cls-2" d="M316.25,43.33c-1.08-.07-2.41-.1-3.78-.1-2.68,0-5.52.11-7.05.26-.35.12-.44.28-.72.28a5.14,5.14,0,0,1-2.09-.94s.06-.08.21-.08H303a28.53,28.53,0,0,0,4.24.18c0-.32-.08-1.15-.16-1.68-.06-.22-.29-.32-1.07-.61-.16,0-.27-.09-.27-.16s.14-.14.49-.19c1.65.11,1.88.27,1.88.51,0,.08,0,.18,0,.29s0,1.51.05,1.82c.55,0,2.31,0,3.4-.09,0-.37.11-1.09.14-2.08,0-.35-.37-.5-.75-.69-.13,0-.23-.1-.23-.14s.13-.13.48-.18c1.41.24,1.72.38,1.72.58s-.12.27-.18.46c-.08.48-.24,1.36-.38,2a10.24,10.24,0,0,0,1.48-.11c.55,0,.45-.3,1.24-.3.43,0,1.76,0,1.76.63,0,.18-.15.33-.47.33ZM309,32.7a.41.41,0,0,0,.34-.68c-.15-.12-.23-.22-.23-.28s.07-.1.21-.1c.55,0,1,.32,1,.51s-.24.32-.26.55c2.28.33,3.33,1.77,3.33,3.21,0,1.6-1.36,3.21-3.76,3.21a3.44,3.44,0,0,1-3.74-3.29C305.94,34.43,306.91,33,309,32.7Zm-2.19,3.15a2.84,2.84,0,1,0,2.83-2.53A2.57,2.57,0,0,0,306.85,35.85Z"/><path class="cls-2" d="M328.34,37.35a3.41,3.41,0,0,1-3,2,4.74,4.74,0,0,1-1.81-.54,4.45,4.45,0,0,0-1.71-.54,3.72,3.72,0,0,0-2.58,1.26l-.18-.14a3.48,3.48,0,0,1,2.77-2,4.92,4.92,0,0,1,1.79.53,4.86,4.86,0,0,0,1.73.55,3.66,3.66,0,0,0,2.81-1.24Z"/></g></g></svg>