<svg xmlns="http://www.w3.org/2000/svg" viewBox="0 0 201.32 23.79"><defs><style>.cls-1{fill:#231f20;}.cls-2{fill:#6d6e71;}</style></defs><g id="Layer_2" data-name="Layer 2"><g id="레이어_2" data-name="레이어 2"><path class="cls-1" d="M10.79,10a6.38,6.38,0,0,1-4.51,1.64A6.38,6.38,0,0,1,1.78,10,5.16,5.16,0,0,1,0,6.05a5.23,5.23,0,0,1,1.78-4A6.31,6.31,0,0,1,6.28.42a6.32,6.32,0,0,1,4.51,1.67,5.28,5.28,0,0,1,1.76,4A5.21,5.21,0,0,1,10.79,10ZM17.3,21A12.59,12.59,0,0,1,11,22.28,12.52,12.52,0,0,1,4.64,21,3.77,3.77,0,0,1,2.45,17.7a3.82,3.82,0,0,1,2.2-3.31A12.44,12.44,0,0,1,11,13.07a12.47,12.47,0,0,1,6.32,1.32,3.83,3.83,0,0,1,2.23,3.31A3.78,3.78,0,0,1,17.3,21ZM8.44,4.09a2.77,2.77,0,0,0-2.16-.84,2.77,2.77,0,0,0-2.93,2.8,2.74,2.74,0,0,0,.78,2,2.79,2.79,0,0,0,2.15.82A2.8,2.8,0,0,0,8.44,8,2.77,2.77,0,0,0,9.2,6.05,2.81,2.81,0,0,0,8.44,4.09Zm6.05,12.19A8.6,8.6,0,0,0,11,15.67a9,9,0,0,0-3.55.59Q6.1,16.85,6.1,17.7c0,.55.45,1,1.34,1.41A9,9,0,0,0,11,19.7a9.13,9.13,0,0,0,3.51-.56c.88-.38,1.32-.85,1.32-1.42S15.38,16.67,14.49,16.28Zm4.36-6v2.57H15.53V0h3.32V2.4h3V5.25h-3V7.38h3v2.87Z"/><path class="cls-1" d="M39.28,15.7V10.2h-4v2.08H24V1.07h11.3V2.85h4V0H42.6V15.7Zm-13,5.8V14.35h3.55v4.28H43.1V21.5ZM32,3.9H27.23V9.42H32Zm7.3,1.73h-4V7.42h4Z"/><path class="cls-1" d="M66.93,12.88a12,12,0,0,1-2.55-1.29,7.74,7.74,0,0,1-2.45-2.27,7.16,7.16,0,0,1-2.12,2.29,11.48,11.48,0,0,1-3.16,1.71l-2.1-2.54a9.94,9.94,0,0,0,3.7-2,4.93,4.93,0,0,0,1.93-4V4.1H56V1.22H67.8V4.1H63.65v.68a4.31,4.31,0,0,0,1.59,3.54,11.51,11.51,0,0,0,3.51,2ZM58.8,21.5V14.28h3.35v4.35H75.58V21.5Zm13-5.6V8H67.9V5h3.85V0H75.1V15.9Z"/><path class="cls-1" d="M87.64,11.74c-1.81.17-3.53.28-5.16.31H78.23V1.2H89.68V4.1H81.55v5h2.6C85,9.1,86.3,9,88,8.85s2.84-.31,3.54-.43v2.86C90.73,11.41,89.45,11.56,87.64,11.74Zm-7,9.76V14H84v4.6H97V21.5ZM96.35,9.3v6.6H93V0h3.32V6.38h3V9.3Z"/><path class="cls-1" d="M113.6,18a14,14,0,0,1-3-2.19,9.35,9.35,0,0,1-2.28-3.06,9.68,9.68,0,0,1-2.4,3.42,18.17,18.17,0,0,1-3,2.33l-2.4-2.3a12,12,0,0,0,4-3.32,10.17,10.17,0,0,0,2-6.72V4.9h-4.65V2.05H114.8V4.9h-4.7V6.13q0,4.32,2,6.38a13.63,13.63,0,0,0,3.7,2.94Zm4.15,4V0h3.35V22Z"/><path class="cls-2" d="M141.54,20.65h-5.25v-.9h2.12V12.4l-2.17.66v-1l3.18-1v8.66h2.12Z"/><path class="cls-2" d="M142.87,16.17a7.06,7.06,0,0,1,.81-3.75A2.57,2.57,0,0,1,146,11.15q2.91,0,2.91,4.79a6.66,6.66,0,0,1-.81,3.61,2.59,2.59,0,0,1-2.31,1.26,2.4,2.4,0,0,1-2.17-1.22A6.52,6.52,0,0,1,142.87,16.17Zm1-.05c0,2.55.66,3.83,2,3.83s2-1.3,2-3.89-.64-4-1.93-4S143.9,13.38,143.9,16.12Z"/><path class="cls-2" d="M150,16.17a7.06,7.06,0,0,1,.81-3.75,2.57,2.57,0,0,1,2.32-1.27q2.91,0,2.91,4.79a6.66,6.66,0,0,1-.81,3.61A2.59,2.59,0,0,1,153,20.81a2.4,2.4,0,0,1-2.17-1.22A6.52,6.52,0,0,1,150,16.17Zm1-.05c0,2.55.66,3.83,2,3.83s2-1.3,2-3.89-.64-4-1.93-4S151.06,13.38,151.06,16.12Z"/><path class="cls-2" d="M163.35,20.12c0,2.45-1.15,3.67-3.47,3.67a4.7,4.7,0,0,1-2.16-.48v-1a4.46,4.46,0,0,0,2.16.62c1.65,0,2.48-.88,2.48-2.66v-.74h0a2.54,2.54,0,0,1-2.3,1.3,2.49,2.49,0,0,1-2-.9,3.54,3.54,0,0,1-.76-2.38,4.13,4.13,0,0,1,.82-2.71,2.75,2.75,0,0,1,2.22-1,2.2,2.2,0,0,1,2,1.1h0V14h1Zm-1-3.49a1.91,1.91,0,0,0-.56-1.38,1.81,1.81,0,0,0-1.36-.58,1.91,1.91,0,0,0-1.58.74,3.29,3.29,0,0,0-.57,2,2.8,2.8,0,0,0,.55,1.82,1.8,1.8,0,0,0,1.45.68,1.91,1.91,0,0,0,1.48-.65,2.4,2.4,0,0,0,.59-1.65Z"/><path class="cls-2" d="M168.91,19.76a2.7,2.7,0,0,1-2.25-1.11,4.87,4.87,0,0,1-.86-3,4.93,4.93,0,0,1,.85-3.06,2.73,2.73,0,0,1,2.26-1.1,2.68,2.68,0,0,1,2.26,1.12,4.86,4.86,0,0,1,.85,3,5,5,0,0,1-.85,3A2.71,2.71,0,0,1,168.91,19.76Zm0-7.47a1.82,1.82,0,0,0-1.57.89,4.27,4.27,0,0,0-.6,2.42,4.3,4.3,0,0,0,.6,2.41,1.8,1.8,0,0,0,3.13,0,4.24,4.24,0,0,0,.61-2.41,4.31,4.31,0,0,0-.6-2.42A1.82,1.82,0,0,0,168.91,12.29Zm5.89,4.16v6.42h-1V10.62h1v5h2.07v.86Z"/><path class="cls-2" d="M178.27,21V20.1h11.36V21Zm9.6-8.3H181v1.77h6.49v.84H181v1.68h7v.84h-8v-6h7.77Z"/><path class="cls-2" d="M198.12,19.88a10.63,10.63,0,0,1-1.94-2,6.18,6.18,0,0,1-1.06-2A6.64,6.64,0,0,1,194,18a10.12,10.12,0,0,1-1.89,2l-.71-.65a7.59,7.59,0,0,0,2.33-2.6,6.61,6.61,0,0,0,.88-3.24v-1H191.9v-.85h6.44v.85h-2.75v1a6.38,6.38,0,0,0,.89,3.2,6.52,6.52,0,0,0,2.29,2.42Zm2.25,3V10.62h.95V22.87Z"/></g></g></svg>